<?xml version="1.0" standalone="no"?>
<!DOCTYPE svg PUBLIC "-//W3C//DTD SVG 20010904//EN"
 "http://www.w3.org/TR/2001/REC-SVG-20010904/DTD/svg10.dtd">
<svg version="1.0" xmlns="http://www.w3.org/2000/svg"
 width="1280.000000pt" height="956.000000pt" viewBox="0 0 1280.000000 956.000000"
 preserveAspectRatio="xMidYMid meet">
<metadata>
Created by potrace 1.15, written by Peter Selinger 2001-2017
</metadata>
<g transform="translate(0.000000,956.000000) scale(0.100000,-0.100000)"
fill="#000000" stroke="none">
<path d="M6125 9124 c-511 -30 -771 -57 -1109 -115 -800 -136 -1551 -389
-2145 -721 -369 -207 -648 -414 -906 -673 -414 -413 -641 -842 -705 -1331 -8
-58 -11 -159 -8 -275 6 -211 27 -335 88 -518 21 -64 41 -125 44 -136 4 -11 -5
3 -18 30 l-25 50 5 -50 c26 -252 81 -439 199 -680 149 -306 284 -476 716 -905
174 -173 320 -325 324 -337 3 -13 9 -23 13 -23 4 0 20 -25 37 -56 l30 -55 24
28 c78 93 -131 -211 -238 -346 -169 -212 -323 -382 -852 -937 -287 -301 -465
-498 -481 -531 -9 -18 -8 -27 7 -43 10 -11 22 -20 27 -20 12 0 928 552 1208
728 118 74 281 180 363 234 145 97 203 128 88 48 -52 -37 -58 -44 -48 -60 20
-33 81 -60 136 -60 62 0 278 57 321 85 8 5 20 10 26 11 6 1 42 16 80 34 215
100 436 184 554 210 30 7 71 17 90 22 60 16 387 22 511 9 63 -7 249 -34 414
-61 697 -114 962 -137 1570 -138 324 0 458 4 695 23 465 37 894 106 1335 216
691 172 1313 436 1830 777 55 36 102 69 105 72 3 3 35 27 72 53 36 26 72 53
80 60 7 7 33 28 58 47 177 138 418 390 552 576 239 334 352 627 403 1039 l5
40 -20 -40 c-22 -45 -23 -46 19 85 297 940 -142 1888 -1204 2595 -856 570
-1969 918 -3265 1020 -181 15 -865 27 -1005 19z m5426 -3791 c-12 -20 -14 -14
-5 12 4 9 9 14 11 11 3 -2 0 -13 -6 -23z m-10147 -19 c3 -8 2 -12 -4 -9 -6 3
-10 10 -10 16 0 14 7 11 14 -7z"/>
</g>
</svg>
