<svg xmlns="http://www.w3.org/2000/svg" width="171.134" height="230" viewBox="0 0 171.134 230"><defs><style>.a{fill:#fd8857;}.b{fill:#5bbdc5;}</style></defs><g transform="translate(-51.946 -54.119)"><path class="a" d="M201.3,461.936h11.008v2.857c0,36.688-.169,73.375.05,110.061.192,31.992-20.335,54.416-46.5,62.308a100.249,100.249,0,0,1-38.844,3.528,120,120,0,0,1-27.373-5.381c-11.591-3.935-21.985-9.867-30.557-18.756C58.956,606.047,53.2,593.594,52.3,578.976c-.192-3.126-.338-6.261-.339-9.391q-.036-52.209-.014-104.417V462.2c1.917-.5,42.466-.589,45.235-.1v2.929q0,54.913.017,109.826c.006,6.2.371,12.389,2.166,18.377,4.616,15.386,14.4,25.861,29.884,30.5,13.747,4.119,27.575,4.231,41.05-1.11,17.422-6.906,27.552-19.823,30.334-38.373a65.444,65.444,0,0,0,.644-9.6q.064-54.677.027-109.356C201.3,464.223,201.3,463.146,201.3,461.936Z" transform="translate(0 -357.091)"/><path class="b" d="M1046.3,70.935a16.843,16.843,0,1,1-16.957-16.8A16.952,16.952,0,0,1,1046.3,70.935Z" transform="translate(-823.217 -0.017)"/><path class="b" d="M127.433,70.892a16.766,16.766,0,1,1-16.67-16.773A16.819,16.819,0,0,1,127.433,70.892Z" transform="translate(-35.952 0)"/></g></svg>